<svg height="800" viewBox="0 0 48 48" width="800" xmlns="http://www.w3.org/2000/svg"><g fill="none" stroke="#353535" stroke-linecap="round" stroke-width="2"><path d="m17.30639 11.25243a5.29412 5.29412 0 1 0 -10.58824 0 5.23707 5.23707 0 0 0 .584 2.37007 5.27955 5.27955 0 0 0 1.53365 10.33581" stroke-linejoin="round"/><path d="m3.58191 21.56266a7.00047 7.00047 0 1 0 11.32225 6.78321v-.34587" stroke-miterlimit="10"/><path d="m8.43086 42.32855a6.21606 6.21606 0 0 1 -3.32286-5.50361 6.14985 6.14985 0 0 1 .68573-2.78316" stroke-linejoin="round"/><path d="m19 16a5 5 0 0 1 -5 5" stroke-miterlimit="10"/><path d="m19 16.01h11.5l2.021-2.02" stroke-miterlimit="10"/><path d="m25.5 20.01h6l2.021-2.02h5.479" stroke-miterlimit="10"/><path d="m24.917 31.99h5.583l2.021 2.02" stroke-miterlimit="10"/><path d="m24.917 27.99h6.583l2.021 2.02h5.479" stroke-miterlimit="10"/><path d="m39 38.01018h-7.47906l-1.52061-2.02061-4.95867.00011v6.05209a5 5 0 0 1 -10 0" stroke-miterlimit="10"/><path d="m17.04167 4.13392a4.05277 4.05277 0 0 1 8 .91833v6.95775l4.45868.00013 2.02065-2.02057h7.479" stroke-miterlimit="10"/><path d="m36 24h-10.95833" stroke-miterlimit="10"/></g><circle cx="11" cy="20" fill="#353535" r="1"/><circle cx="11.79167" cy="43.5" fill="#353535" r="1"/><circle cx="41.47922" cy="10" fill="none" r="2" stroke="#353535" stroke-linecap="round" stroke-miterlimit="10" stroke-width="2"/><circle cx="41.47922" cy="18" fill="none" r="2" stroke="#353535" stroke-linecap="round" stroke-miterlimit="10" stroke-width="2"/><circle cx="41.47922" cy="30" fill="none" r="2" stroke="#353535" stroke-linecap="round" stroke-miterlimit="10" stroke-width="2"/><circle cx="41.47922" cy="38" fill="none" r="2" stroke="#353535" stroke-linecap="round" stroke-miterlimit="10" stroke-width="2"/></svg>