<svg height="800" viewBox="0 0 200 200" width="800" xmlns="http://www.w3.org/2000/svg"><g fill="none" stroke-width="8"><path d="m106 27a23 23 0 1 0 -43.55 10.33 18.45 18.45 0 0 0 -9-2.33c-11 0-20 9.85-20 22a23.09 23.09 0 0 0 5.81 15.5 19.12 19.12 0 0 0 -4.26-.5c-12.7 0-23 12.54-23 28s10.3 28 23 28a19.12 19.12 0 0 0 4.31-.5 23.09 23.09 0 0 0 -5.81 15.5c0 12.15 9 22 20 22a18.45 18.45 0 0 0 9-2.33 23 23 0 1 0 43.5 10.33c0-.34 0-.67 0-1v-144c0-.33 0-.66 0-1z" stroke="#220728" stroke-linejoin="bevel"/><g stroke-miterlimit="10"><path d="m67.26 189.26a23 23 0 0 0 32.53-32.53h-12.89" stroke="#220728"/><path d="m66.26 10.74a23 23 0 0 1 32.53 32.52h-11.12" stroke="#220728"/><path d="m106 95h-25l-31.75 29.76" stroke="#220728"/><path d="m44.97 86.65 17.48 24.79" stroke="#220728"/><path d="m62.45 162.67 12.05-16.67" stroke="#220728"/><path d="m62.45 37.49 8.55 13.51v20" stroke="#220728"/><path d="m152 100h-48" stroke="#220728"/><path d="m107 131h24l12 21.67" stroke="#220728"/><path d="m107 70h24l12-21.67" stroke="#220728"/><circle cx="171" cy="100" r="16" stroke="#ffc548"/><circle cx="149" cy="170" r="16" stroke="#ffc548"/><circle cx="149" cy="30" r="16" stroke="#ffc548"/></g></g></svg>