<svg clip-rule="evenodd" fill-rule="evenodd" height="800" stroke-linecap="round" stroke-linejoin="round" stroke-miterlimit="1.5" viewBox="0 0 2253 2253" width="800" xmlns="http://www.w3.org/2000/svg"><path d="m1.288 1.158h2250v2250h-2250z" fill="none"/><g stroke="#000" stroke-width="66.67"><path d="m1147.12 209.491c-248.64 0-487.097 98.772-662.913 274.588-365.871 365.871-365.871 959.954 0 1325.83 365.872 365.871 959.954 365.871 1325.83 0 277.955-277.955 352.993-699.797 187.941-1056.56l-425.427 196.821c82.526 178.379 45.007 389.3-93.971 528.278-182.935 182.935-479.977 182.935-662.912 0-182.936-182.936-182.936-479.977 0-662.913 87.907-87.908 207.136-137.294 331.456-137.294v-468.75z" fill="#3050f3"/><path d="m1996.79 750.734c-153.978-330.174-485.322-541.243-849.664-541.243v468.704c182.171 0 347.843 105.535 424.832 270.622z" fill="#4dbe4b"/></g></svg>