<?xml version="1.0" ?><!DOCTYPE svg  PUBLIC '-//W3C//DTD SVG 1.1//EN'  'http://www.w3.org/Graphics/SVG/1.1/DTD/svg11.dtd'><!-- Uploaded to: SVG Repo, www.svgrepo.com, Generator: SVG Repo Mixer Tools -->
<svg width="800px" height="800px" viewBox="0 0 2253 2253" style="fill-rule:evenodd;clip-rule:evenodd;stroke-linecap:round;stroke-linejoin:round;stroke-miterlimit:1.5;" version="1.1" xml:space="preserve" xmlns="http://www.w3.org/2000/svg" xmlns:serif="http://www.serif.com/" xmlns:xlink="http://www.w3.org/1999/xlink"><rect height="2250" id="donut_chart_piece" style="fill:none;" width="2250" x="1.288" y="1.158"/><path d="M1147.12,209.491c-248.64,0 -487.097,98.772 -662.913,274.588c-365.871,365.871 -365.871,959.954 0,1325.83c365.872,365.871 959.954,365.871 1325.83,-0c277.955,-277.955 352.993,-699.797 187.941,-1056.56l-425.427,196.821c82.526,178.379 45.007,389.3 -93.971,528.278c-182.935,182.935 -479.977,182.935 -662.912,-0c-182.936,-182.936 -182.936,-479.977 -0,-662.913c87.907,-87.908 207.136,-137.294 331.456,-137.294l-0,-468.75Z" style="fill:#3050f3;stroke:#000000;stroke-width:66.67px;"/><path d="M1996.79,750.734c-153.978,-330.174 -485.322,-541.243 -849.664,-541.243l-0,468.704c182.171,0 347.843,105.535 424.832,270.622l424.832,-198.083Z" style="fill:#4dbe4b;stroke:#000000;stroke-width:66.67px;"/></svg>